# xmcd
#
# Track frame offsets:
#	150
#	25466
#	45543
#	66480
#	80478
#	100398
#	127540
#	146796
#	165346
#	189171
#	229673
#
# Disc length: 3328 seconds
#
# Revision: 0
# Processed by: cddbd v1.5.1PL0 Copyright (c) Steve Scherf et al.
# Submitted via: dBpowerAMP V4.0
#
DISCID=8a0cfe0b
DTITLE=David Gray - White Ladder
DYEAR=1900
DGENRE=
TTITLE0=Please Forgive Me
TTITLE1=Babylon
TTITLE2=My Oh My
TTITLE3=Were not Alright
TTITLE4=Nightblindness
TTITLE5=Silver Lining
TTITLE6=White Ladder
TTITLE7=This Years Love
TTITLE8=Sail Away
TTITLE9=Say Hello, Wave Goodbye
TTITLE10=Babylon II
EXTD=
EXTT0=
EXTT1=
EXTT2=
EXTT3=
EXTT4=
EXTT5=
EXTT6=
EXTT7=
EXTT8=
EXTT9=
EXTT10=
PLAYORDER=
